#!OML:ASF I:\golf\golf\golf 2\Subject 1\2002-09-07\Subject1.ASF
:FULLY-SPECIFIED
:DEGREES
475
root -5.93376 17.9966 -1.63848 -167.422 0.812785 -175.277
lowerback -7.64178 9.57027 9.81945
upperback -10.5439 14.8915 2.09842
thorax -5.41263 7.80122 -2.54076
lowerneck -14.7643 -15.9315 -2.87568
upperneck 6.98703 -21.4011 4.65186
head 5.22479 -10.3097 -0.104953
rclavicle 6.22196e-014 7.4743e-014
rhumerus 97.4749 24.6095 -52.4186
rradius 41.3724
rwrist -10.4482
rhand -41.0124 29.2759
rfingers 7.12502
rthumb -13.9436 -0.236523
lclavicle 6.22196e-014 7.4743e-014
lhumerus 68.8313 7.75109 56.2573
lradius 40.5728
lwrist 38.6736
lhand -13.5718 9.31616
lfingers 7.12502
lthumb -167.458 578.92
rfemur 12.2435 -6.02781 21.2767
rtibia 21.0734
rfoot 31.6665 -29.9085
rtoes 25.1528
lfemur -27.7678 -16.5375 -12.0938
ltibia 26.1176
lfoot 39.3609 -41.6534
ltoes 52.6035
476
root -5.91999 18.0024 -1.61992 -167.429 0.860957 -175.32
lowerback -7.52152 9.45643 9.66078
upperback -10.4007 14.6881 2.13771
thorax -5.37473 7.69283 -2.44656
lowerneck -14.7309 -15.7629 -2.83578
upperneck 6.74239 -21.1676 4.6881
head 5.13544 -10.2004 -0.059471
rclavicle -1.03368e-014 -2.78299e-014
rhumerus 97.2178 24.9041 -52.5038
rradius 40.739
rwrist -10.349
rhand -41.0449 29.1896
rfingers 7.12502
rthumb -13.9749 -0.320704
lclavicle -1.03368e-014 -2.78299e-014
lhumerus 68.7147 7.45043 56.9341
lradius 40.1662
lwrist 39.2286
lhand -13.1976 9.75923
lfingers 7.12502
lthumb -167.097 579.34
rfemur 12.0114 -5.99193 21.2456
rtibia 21.4019
rfoot 31.5907 -29.6926
rtoes 24.5626
lfemur -27.7058 -16.4257 -12.1012
ltibia 25.8986
lfoot 39.3422 -41.7673
ltoes 52.3756
477
root -5.90571 18.0087 -1.59994 -167.419 0.899592 -175.402
lowerback -7.35365 9.3691 9.44527
upperback -10.2644 14.525 2.14771
thorax -5.36948 7.60358 -2.36025
lowerneck -14.8255 -15.6679 -2.74876
upperneck 6.60563 -21.032 4.62914
head 5.0872 -10.1374 -0.0713994
rclavicle 7.95139e-014 8.11041e-014
rhumerus 96.9083 25.1588 -52.7119
rradius 40.098
rwrist -10.1947
rhand -40.9133 29.1608
rfingers 7.12502
rthumb -13.8481 -0.358167
lclavicle 7.95139e-014 8.11041e-014
lhumerus 68.5426 7.01686 57.2216
lradius 39.734
lwrist 39.3678
lhand -13.5932 9.85383
lfingers 7.12502
lthumb -167.479 579.459
rfemur 11.7623 -5.95724 21.1979
rtibia 21.727
rfoot 31.6999 -29.5787
rtoes 25.9034
lfemur -27.654 -16.38 -12.1203
ltibia 25.6329
lfoot 39.4815 -41.6362
ltoes 52.3986
478
root -5.89202 18.0138 -1.58169 -167.389 0.981431 -175.5
lowerback -7.17284 9.2795 9.21717
upperback -10.1648 14.3669 2.12524
thorax -5.4053 7.51521 -2.30654
lowerneck -14.9929 -15.538 -2.59118
upperneck 6.6173 -20.8742 4.56297
head 5.08917 -10.0576 -0.104748
rclavicle 1.2921e-014 2.38542e-015
rhumerus 96.5257 25.4764 -53.0932
rradius 39.5219
rwrist -10.204
rhand -40.5403 29.7135
rfingers 7.12502
rthumb -13.4886 0.170271
lclavicle 1.2921e-014 2.38542e-015
lhumerus 68.3859 6.57052 57.505
lradius 39.2446
lwrist 39.4676
lhand -13.7296 9.87491
lfingers 7.12502
lthumb -167.61 579.488
rfemur 11.5124 -5.88767 21.113
rtibia 22.0305
rfoot 31.8749 -29.3021
rtoes 26.8319
lfemur -27.6044 -16.427 -12.1274
ltibia 25.3517
lfoot 39.5506 -41.3316
ltoes 52.5839
479
root -5.87948 18.0183 -1.5671 -167.351 1.08471 -175.671
lowerback -7.0523 9.16625 8.94555
upperback -10.0647 14.1585 2.04875
thorax -5.40501 7.40158 -2.27478
lowerneck -15.1208 -15.3357 -2.2567
upperneck 6.51777 -20.6481 4.47383
head 5.02858 -9.94841 -0.149352
rclavicle 3.16068e-014 -4.45278e-014
rhumerus 96.252 25.6699 -53.1522
rradius 39.1285
rwrist -10.3955
rhand -40.5905 29.9807
rfingers 7.12502
rthumb -13.537 0.440733
lclavicle 3.16068e-014 -4.45278e-014
lhumerus 68.1982 6.16677 57.5781
lradius 38.7737
lwrist 39.6371
lhand -13.6157 9.8356
lfingers 7.12502
lthumb -167.5 579.442
rfemur 11.2842 -5.66344 20.9765
rtibia 22.2827
rfoot 31.7202 -29.2449
rtoes 25.7789
lfemur -27.5715 -16.4935 -12.2232
ltibia 25.1209
lfoot 39.4923 -41.1275
ltoes 52.6444
480
root -5.8695 18.0232 -1.55263 -167.308 1.13227 -175.801
lowerback -6.94781 9.14148 8.78591
upperback -9.9534 14.0745 1.98808
thorax -5.35662 7.35031 -2.26664
lowerneck -15.1436 -15.2937 -2.40271
upperneck 6.40538 -20.572 4.6107
head 5.02424 -9.90791 -0.083156
rclavicle -1.60022e-013 -9.54166e-014
rhumerus 95.9181 25.653 -52.8687
rradius 38.7571
rwrist -10.5077
rhand -40.7258 29.8145
rfingers 7.12502
rthumb -13.6674 0.283267
lclavicle -1.60022e-013 -9.54166e-014
lhumerus 68.1052 5.59096 58.0077
lradius 38.3233
lwrist 39.6582
lhand -13.6821 9.80011
lfingers 7.12502
lthumb -167.564 579.41
rfemur 11.0803 -5.50403 20.8621
rtibia 22.4906
rfoot 31.6299 -29.2203
rtoes 26.4218
lfemur -27.5872 -16.5 -12.312
ltibia 24.9646
lfoot 39.4314 -41.0728
ltoes 52.642
481
root -5.86088 18.027 -1.53584 -167.261 1.11504 -175.721
lowerback -6.8469 9.12103 8.85186
upperback -9.81199 14.0008 2.01302
thorax -5.25212 7.30059 -2.2784
lowerneck -15.3499 -15.2601 -2.68055
upperneck 6.43242 -20.4874 4.77787
head 5.10801 -9.85438 -0.0130263
rclavicle -6.2816e-014 -1.98785e-014
rhumerus 95.4793 25.6711 -52.6599
rradius 38.4888
rwrist -10.5295
rhand -40.7195 29.684
rfingers 7.12502
rthumb -13.6613 0.15234
lclavicle -6.2816e-014 -1.98785e-014
lhumerus 67.9257 5.06613 58.4664
lradius 38.0464
lwrist 39.6473
lhand -13.9989 9.88376
lfingers 7.12502
lthumb -167.87 579.512
rfemur 10.8896 -5.58345 20.9165
rtibia 22.6813
rfoot 31.4665 -28.6557
rtoes 23.9082
lfemur -27.6646 -16.5049 -12.1561
ltibia 24.8738
lfoot 39.4192 -41.0101
ltoes 52.6789
